<?xml version="1.0" standalone="no"?>
<!DOCTYPE svg PUBLIC "-//W3C//DTD SVG 20010904//EN"
 "http://www.w3.org/TR/2001/REC-SVG-20010904/DTD/svg10.dtd">
<svg version="1.0" xmlns="http://www.w3.org/2000/svg"
 width="1080.000000pt" height="1080.000000pt" viewBox="0 0 1080.000000 1080.000000"
 preserveAspectRatio="xMidYMid meet">

<g transform="translate(0.000000,1080.000000) scale(0.100000,-0.100000)"
fill="#000000" stroke="none">
<path d="M2865 10206 c-133 -44 -477 -218 -665 -337 -478 -300 -873 -676
-1204 -1147 -167 -239 -312 -503 -416 -762 -23 -58 -49 -120 -57 -138 -65
-147 -170 -536 -208 -767 -72 -443 -76 -930 -9 -1344 17 -109 49 -267 65 -326
5 -22 14 -58 19 -80 29 -129 130 -421 189 -544 26 -54 85 -114 142 -146 49
-27 62 -30 149 -30 84 0 102 3 152 28 79 39 139 108 166 191 34 102 28 168
-23 281 -63 136 -143 413 -184 635 -12 63 -24 124 -27 135 -9 40 -34 392 -34
495 0 119 24 426 40 513 5 31 15 82 20 112 6 30 14 79 19 108 18 97 84 329
121 422 114 288 145 358 237 527 49 90 201 330 236 374 9 10 53 66 98 124 157
198 436 466 649 621 197 144 457 292 702 399 106 46 166 91 204 152 34 53 57
151 51 213 -11 109 -89 219 -192 273 -60 31 -176 40 -240 18z"/>
<path d="M3330 9067 c-246 -91 -576 -289 -795 -477 -290 -250 -465 -462 -670
-812 -81 -138 -219 -467 -255 -608 -5 -19 -18 -71 -29 -115 -21 -78 -43 -183
-55 -255 -15 -92 -36 -346 -36 -440 0 -112 23 -395 40 -495 32 -187 107 -459
162 -585 6 -14 16 -36 22 -50 23 -54 68 -109 112 -138 166 -111 367 -61 457
112 28 55 31 70 31 146 -1 72 -5 96 -31 155 -94 220 -162 565 -163 825 -1 690
331 1382 865 1804 176 139 264 193 488 301 168 81 219 122 259 210 30 68 31
180 1 247 -71 157 -245 233 -403 175z"/>
<path d="M7240 8380 c-241 -37 -568 -126 -715 -194 -83 -39 -179 -116 -241
-194 -24 -31 -87 -141 -140 -244 -147 -289 -214 -379 -348 -471 -124 -84 -265
-128 -606 -187 -225 -39 -353 -71 -465 -115 -33 -13 -82 -29 -108 -36 -48 -12
-77 -38 -77 -71 0 -29 29 -107 81 -215 37 -78 52 -125 64 -200 19 -114 49
-251 77 -343 72 -239 283 -368 723 -443 196 -34 371 -47 629 -47 208 0 515 14
562 26 18 5 26 16 34 48 30 123 70 248 123 391 68 183 241 613 317 790 29 66
60 140 70 166 10 25 32 75 49 112 17 37 31 72 31 78 0 5 13 35 29 67 15 31 34
73 40 93 7 20 27 68 46 105 19 38 35 77 35 87 0 9 7 17 15 17 26 0 17 -66 -25
-191 -22 -65 -40 -126 -40 -134 0 -9 -15 -64 -34 -123 -19 -59 -53 -168 -76
-242 -23 -74 -45 -146 -50 -160 -5 -14 -25 -79 -45 -145 -20 -66 -40 -131 -44
-145 -57 -176 -163 -569 -189 -700 -79 -392 -69 -643 31 -850 12 -25 51 -75
87 -111 144 -146 373 -202 595 -144 320 83 685 458 849 870 37 93 100 286 115
355 7 30 19 82 26 115 30 128 76 449 105 730 6 61 15 146 20 190 5 44 12 125
15 180 7 118 16 160 36 160 20 0 25 -83 34 -520 10 -517 -13 -816 -86 -1115
-11 -47 -24 -96 -29 -110 -91 -267 -165 -418 -293 -590 -63 -86 -234 -249
-322 -309 -139 -94 -162 -116 -186 -179 -20 -49 -23 -76 -23 -197 0 -77 5
-178 11 -225 14 -98 27 -227 43 -420 46 -559 113 -1030 182 -1280 64 -234 66
-238 101 -249 43 -13 107 -25 132 -23 22 1 40 18 241 232 256 270 537 608 749
899 50 68 112 153 138 189 117 161 405 622 520 832 16 30 44 80 62 110 126
219 465 947 465 999 0 10 -28 41 -62 70 -95 79 -263 246 -329 328 -60 72 -117
156 -311 454 -183 282 -369 549 -693 995 -99 136 -202 279 -230 318 -397 564
-681 807 -1058 903 -91 23 -125 26 -317 29 -175 3 -238 0 -340 -16z"/>
<path d="M3790 8002 c-30 -10 -98 -40 -150 -67 -334 -168 -642 -475 -794 -790
-137 -286 -188 -498 -190 -795 -1 -226 22 -375 91 -579 54 -162 99 -223 198
-272 60 -30 70 -31 149 -27 74 4 91 8 141 39 60 36 88 67 126 139 19 37 23 61
24 130 0 72 -5 97 -31 165 -53 133 -68 222 -68 385 1 155 11 227 51 353 99
316 314 556 637 711 159 77 219 162 220 311 0 67 -4 88 -26 130 -75 144 -236
214 -378 167z"/>
<path d="M6378 5393 c-33 -39 -67 -174 -88 -348 -10 -80 -17 -126 -50 -310
-25 -142 -68 -204 -178 -259 -62 -31 -107 -41 -292 -66 -289 -39 -368 -77
-471 -229 -63 -91 -211 -242 -294 -297 -75 -51 -309 -176 -430 -229 -78 -35
-94 -47 -122 -88 -46 -69 -57 -207 -23 -311 67 -208 116 -338 161 -428 124
-245 231 -307 587 -338 229 -20 372 -60 440 -122 25 -25 29 -77 12 -200 -5
-40 -14 -118 -20 -173 -7 -60 -33 -176 -65 -290 -108 -385 -145 -569 -172
-863 -15 -172 -15 -194 1 -350 21 -207 75 -432 110 -461 14 -12 124 39 506
233 342 173 644 352 1005 594 378 254 785 575 1105 871 58 54 115 106 128 116
47 41 55 37 -263 120 -328 86 -493 157 -597 254 -55 51 -67 69 -91 137 -83
231 -127 494 -127 766 0 361 -27 669 -76 883 -46 199 -147 507 -234 710 -5 11
-27 70 -50 130 -89 235 -198 424 -299 518 -54 50 -87 59 -113 30z"/>
</g>
</svg>
